<svg version="1.1" id="Layer_1" xmlns="http://www.w3.org/2000/svg" xmlns:xlink="http://www.w3.org/1999/xlink" x="0px" y="0px"
	 width="100%" viewBox="0 0 1080 1080" enable-background="new 0 0 1080 1080" xml:space="preserve">
<path fill="#000000" opacity="1.000000" stroke="none" 
	d="
M501.000000,1081.000000 
	C334.019226,1081.000000 167.538422,1081.000000 1.028820,1081.000000 
	C1.028820,721.060730 1.028820,361.121521 1.028820,1.091133 
	C360.897675,1.091133 720.795410,1.091133 1080.846558,1.091133 
	C1080.846558,360.999939 1080.846558,720.999939 1080.846558,1081.000000 
	C887.787659,1081.000000 694.643860,1081.000000 501.000000,1081.000000 
M603.499939,761.834290 
	C702.372009,761.834290 801.244080,761.834290 901.366699,761.834290 
	C899.404846,760.393921 898.545837,759.694641 897.622192,759.094971 
	C832.206421,716.620422 766.794067,674.140503 701.319946,631.756042 
	C699.513489,630.586670 697.039124,629.908936 694.875793,629.907898 
	C525.237366,629.823975 355.598846,629.830139 185.960358,629.845581 
	C184.776001,629.845703 183.591660,630.067200 181.687012,630.257141 
	C183.648666,631.541077 184.879608,632.352356 186.116013,633.155212 
	C250.834732,675.176147 315.538574,717.220154 380.332001,759.125610 
	C382.789276,760.714844 386.113068,761.717773 389.035553,761.723572 
	C460.190125,761.865295 531.345032,761.834229 603.499939,761.834290 
M371.643036,403.142914 
	C308.488983,466.308228 245.334900,529.473511 181.642151,593.177612 
	C183.251190,593.385864 183.724594,593.500671 184.197998,593.500732 
	C263.697510,593.509460 343.197083,593.533691 422.696320,593.382874 
	C424.819031,593.378845 427.418732,591.955261 428.990173,590.386536 
	C517.924438,501.602783 606.773560,412.733795 695.620850,323.862976 
	C696.597717,322.885834 697.439209,321.773254 698.701294,320.309387 
	C697.345764,320.234528 696.713440,320.169067 696.081116,320.169037 
	C616.748291,320.164429 537.415344,320.141754 458.082764,320.287598 
	C455.952698,320.291504 453.332825,321.624603 451.771027,323.174072 
	C425.150543,349.585205 398.661285,376.128662 371.643036,403.142914 
z"/>
<path fill="#FEFEFE" opacity="1.000000" stroke="none" 
	d="
M602.999878,761.834290 
	C531.345032,761.834229 460.190125,761.865295 389.035553,761.723572 
	C386.113068,761.717773 382.789276,760.714844 380.332001,759.125610 
	C315.538574,717.220154 250.834732,675.176147 186.116013,633.155212 
	C184.879608,632.352356 183.648666,631.541077 181.687012,630.257141 
	C183.591660,630.067200 184.776001,629.845703 185.960358,629.845581 
	C355.598846,629.830139 525.237366,629.823975 694.875793,629.907898 
	C697.039124,629.908936 699.513489,630.586670 701.319946,631.756042 
	C766.794067,674.140503 832.206421,716.620422 897.622192,759.094971 
	C898.545837,759.694641 899.404846,760.393921 901.366699,761.834290 
	C801.244080,761.834290 702.372009,761.834290 602.999878,761.834290 
z"/>
<path fill="#FEFEFE" opacity="1.000000" stroke="none" 
	d="
M371.893066,402.892944 
	C398.661285,376.128662 425.150543,349.585205 451.771027,323.174072 
	C453.332825,321.624603 455.952698,320.291504 458.082764,320.287598 
	C537.415344,320.141754 616.748291,320.164429 696.081116,320.169037 
	C696.713440,320.169067 697.345764,320.234528 698.701294,320.309387 
	C697.439209,321.773254 696.597717,322.885834 695.620850,323.862976 
	C606.773560,412.733795 517.924438,501.602783 428.990173,590.386536 
	C427.418732,591.955261 424.819031,593.378845 422.696320,593.382874 
	C343.197083,593.533691 263.697510,593.509460 184.197998,593.500732 
	C183.724594,593.500671 183.251190,593.385864 181.642151,593.177612 
	C245.334900,529.473511 308.488983,466.308228 371.893066,402.892944 
z"/>
</svg>